<svg version="1.1" viewBox="0.0 0.0 149.0 149.0" fill="none" stroke="none" stroke-linecap="square" stroke-miterlimit="10" preserveAspectRatio="none" width="149" height="149" xmlns:xlink="http://www.w3.org/1999/xlink" xmlns="http://www.w3.org/2000/svg"><clipPath id="id_0"><path d="M0 0L149.0 0L149.0 149.0L0 149.0L0 0Z" clip-rule="nonzero"/></clipPath><path fill="#000000" fill-opacity="0.0" clip-path="url(#id_0)" d="M-483.00964 -319.69913L632.0071 -319.69913L632.0071 468.69653L-483.00964 468.69653Z" fill-rule="evenodd"/><path fill="#000000" fill-opacity="0.0" clip-path="url(#id_0)" d="M0.49671012 0.49671012L148.5008 0.49671012L148.5008 148.5008L0.49671012 148.5008Z" fill-rule="evenodd"/><path fill="#000000" fill-opacity="0.0" clip-path="url(#id_0)" d="M0.49671012 0.49671012L148.5008 0.49671012L148.5008 148.5008L0.49671012 148.5008Z" fill-rule="evenodd"/><path fill="#000000" fill-opacity="0.0" clip-path="url(#id_0)" d="M0.49671012 0.49671012L148.5008 0.49671012L148.5008 148.5008L0.49671012 148.5008Z" fill-rule="evenodd"/><path fill="#d9d9d9" clip-path="url(#id_0)" d="M0.49671012 0.49671012L49.8314 0.49671012L49.8314 49.8314L0.49671012 49.8314Z" fill-rule="evenodd"/><path stroke="#000000" stroke-width="0.993315952476772" stroke-linejoin="round" stroke-linecap="butt" clip-path="url(#id_0)" d="M0.49671012 0.49671012L49.8314 0.49671012L49.8314 49.8314L0.49671012 49.8314Z" fill-rule="evenodd"/><clipPath id="id_1"><path d="M5.551115E-17 0L149.0 0L149.0 149.0L5.551115E-17 149.0L5.551115E-17 0Z" clip-rule="nonzero"/></clipPath><path fill="#000000" clip-path="url(#id_1)" d="M13.425338 20.666197Q12.276816 21.892323 11.82672 23.320213Q11.376624 24.748106 11.376624 26.393284Q11.376624 28.333355 11.888803 29.88541Q12.416502 31.421947 13.425338 32.492863L13.177009 32.772232Q11.687036 31.49955 10.957569 29.900932Q10.228103 28.286793 10.228103 26.393284Q10.228103 24.60842 10.957569 23.071884Q11.687036 21.519829 13.177009 20.324745L13.425338 20.666197ZM17.368303 20.805882Q18.703072 20.805882 19.354935 21.86128Q20.0068 22.91668 20.0068 24.934351Q20.0068 27.603888 19.292852 28.907616Q18.578907 30.195822 17.088934 30.195822Q16.297384 30.195822 15.738645 29.88541Q15.195425 29.559479 14.853972 28.969698Q14.528041 28.379917 14.372835 27.557327Q14.23315 26.719217 14.23315 25.679338Q14.23315 24.375612 14.434917 23.444378Q14.652205 22.513144 15.055739 21.938883Q15.474795 21.349102 16.049055 21.085253Q16.623316 20.805882 17.368303 20.805882ZM15.33511 25.322367Q15.33511 27.63493 15.769686 28.690329Q16.219782 29.730206 17.166536 29.730206Q17.756317 29.730206 18.09777 29.357712Q18.454742 28.985218 18.62547 28.410957Q18.796196 27.836697 18.842756 27.138271Q18.889318 26.439846 18.889318 25.772463Q18.889318 24.57738 18.780674 23.73927Q18.687551 22.885637 18.470263 22.342419Q18.268496 21.783678 17.911524 21.535349Q17.57007 21.2715 17.073412 21.2715Q16.45259 21.2715 16.111137 21.628471Q15.769686 21.985445 15.598959 22.559706Q15.428233 23.133966 15.381672 23.863434Q15.33511 24.57738 15.33511 25.322367ZM21.861475 28.705849Q22.202929 28.628246 22.482298 28.535122Q22.77719 28.442 23.165203 28.302313L23.35145 28.48856Q23.025518 29.388754 22.51334 30.180302Q22.001162 30.97185 21.411379 31.732357L20.86816 31.980686L20.681913 31.841002Q21.11649 31.127056 21.442421 30.351028Q21.783873 29.59052 21.861475 28.705849ZM27.297537 20.805882Q28.632305 20.805882 29.28417 21.86128Q29.936033 22.91668 29.936033 24.934351Q29.936033 27.603888 29.222088 28.907616Q28.50814 30.195822 27.018167 30.195822Q26.226618 30.195822 25.66788 29.88541Q25.124659 29.559479 24.783207 28.969698Q24.457275 28.379917 24.302069 27.557327Q24.162384 26.719217 24.162384 25.679338Q24.162384 24.375612 24.364151 23.444378Q24.58144 22.513144 24.984974 21.938883Q25.404028 21.349102 25.978289 21.085253Q26.552551 20.805882 27.297537 20.805882ZM25.264343 25.322367Q25.264343 27.63493 25.69892 28.690329Q26.149015 29.730206 27.09577 29.730206Q27.68555 29.730206 28.027004 29.357712Q28.383976 28.985218 28.554703 28.410957Q28.72543 27.836697 28.77199 27.138271Q28.818552 26.439846 28.818552 25.772463Q28.818552 24.57738 28.709908 23.73927Q28.616785 22.885637 28.399498 22.342419Q28.19773 21.783678 27.840757 21.535349Q27.499304 21.2715 27.002647 21.2715Q26.381824 21.2715 26.04037 21.628471Q25.69892 21.985445 25.528193 22.559706Q25.357468 23.133966 25.310905 23.863434Q25.264343 24.57738 25.264343 25.322367ZM31.076763 20.324745Q32.551216 21.519829 33.280685 23.071884Q34.01015 24.60842 34.01015 26.393284Q34.01015 28.286793 33.280685 29.900932Q32.551216 31.49955 31.076763 32.772232L30.812914 32.492863Q32.877148 30.211344 32.877148 26.393284Q32.877148 24.748106 32.42705 23.320213Q31.976957 21.892323 30.812914 20.666197L31.076763 20.324745Z" fill-rule="nonzero"/><path fill="#d9d9d9" clip-path="url(#id_0)" d="M49.8314 0.49671012L99.16609 0.49671012L99.16609 49.8314L49.8314 49.8314Z" fill-rule="evenodd"/><path stroke="#000000" stroke-width="0.993315952476772" stroke-linejoin="round" stroke-linecap="butt" clip-path="url(#id_0)" d="M49.8314 0.49671012L99.16609 0.49671012L99.16609 49.8314L49.8314 49.8314Z" fill-rule="evenodd"/><path fill="#000000" clip-path="url(#id_0)" d="M62.76003 20.666197Q61.611507 21.892323 61.16141 23.320213Q60.711315 24.748106 60.711315 26.393284Q60.711315 28.333355 61.223495 29.88541Q61.751194 31.421947 62.76003 32.492863L62.5117 32.772232Q61.02173 31.49955 60.29226 29.900932Q59.562794 28.286793 59.562794 26.393284Q59.562794 24.60842 60.29226 23.071884Q61.02173 21.519829 62.5117 20.324745L62.76003 20.666197ZM67.16861 20.805882L67.16861 28.690329Q67.16861 29.093863 67.246216 29.233547Q67.32382 29.357712 67.4635 29.435314Q67.63423 29.512918 68.00672 29.528439L68.720665 29.574999L68.720665 29.978535Q68.596504 29.978535 68.31713 29.963015Q68.037766 29.963015 67.71183 29.947493Q67.40142 29.947493 67.09101 29.931973Q66.79612 29.931973 66.6254 29.931973Q66.42362 29.931973 66.097694 29.931973Q65.787285 29.947493 65.44583 29.947493Q65.119896 29.963015 64.84053 29.963015Q64.576675 29.978535 64.452515 29.978535L64.452515 29.574999L65.181984 29.528439Q65.368225 29.528439 65.47687 29.512918Q65.58552 29.497396 65.69416 29.450836Q65.911446 29.373232 65.973526 29.218027Q66.05113 29.06282 66.05113 28.659286L66.05113 22.187212Q66.05113 21.923363 66.02009 21.86128Q65.98905 21.799198 65.94249 21.799198Q65.92697 21.799198 65.88041 21.83024Q65.849365 21.84576 65.787285 21.8768L64.204185 22.590748L64.0645 22.590748L63.97138 22.016487Q64.77844 21.737116 65.554474 21.411184Q66.34602 21.085253 66.98237 20.7438L67.16861 20.805882ZM71.19617 28.705849Q71.53762 28.628246 71.81699 28.535122Q72.11188 28.442 72.49989 28.302313L72.68614 28.48856Q72.36021 29.388754 71.84803 30.180302Q71.33585 30.97185 70.74607 31.732357L70.20285 31.980686L70.0166 31.841002Q70.45118 31.127056 70.777115 30.351028Q71.11857 29.59052 71.19617 28.705849ZM76.63223 20.805882Q77.966995 20.805882 78.61886 21.86128Q79.27072 22.91668 79.27072 24.934351Q79.27072 27.603888 78.55678 28.907616Q77.842834 30.195822 76.35286 30.195822Q75.56131 30.195822 75.00257 29.88541Q74.45935 29.559479 74.1179 28.969698Q73.79197 28.379917 73.636765 27.557327Q73.49708 26.719217 73.49708 25.679338Q73.49708 24.375612 73.698845 23.444378Q73.91613 22.513144 74.319664 21.938883Q74.73872 21.349102 75.31298 21.085253Q75.887245 20.805882 76.63223 20.805882ZM74.59904 25.322367Q74.59904 27.63493 75.033615 28.690329Q75.48371 29.730206 76.430466 29.730206Q77.02024 29.730206 77.361694 29.357712Q77.718666 28.985218 77.8894 28.410957Q78.06012 27.836697 78.10668 27.138271Q78.153244 26.439846 78.153244 25.772463Q78.153244 24.57738 78.0446 23.73927Q77.95148 22.885637 77.73419 22.342419Q77.532425 21.783678 77.175446 21.535349Q76.834 21.2715 76.33734 21.2715Q75.716515 21.2715 75.37506 21.628471Q75.033615 21.985445 74.862885 22.559706Q74.69216 23.133966 74.6456 23.863434Q74.59904 24.57738 74.59904 25.322367ZM80.41145 20.324745Q81.88591 21.519829 82.61538 23.071884Q83.34484 24.60842 83.34484 26.393284Q83.34484 28.286793 82.61538 29.900932Q81.88591 31.49955 80.41145 32.772232L80.147606 32.492863Q82.21184 30.211344 82.21184 26.393284Q82.21184 24.748106 81.76174 23.320213Q81.311646 21.892323 80.147606 20.666197L80.41145 20.324745Z" fill-rule="nonzero"/><path fill="#d9d9d9" clip-path="url(#id_0)" d="M99.16609 0.49671012L148.5008 0.49671012L148.5008 49.8314L99.16609 49.8314Z" fill-rule="evenodd"/><path stroke="#000000" stroke-width="0.993315952476772" stroke-linejoin="round" stroke-linecap="butt" clip-path="url(#id_0)" d="M99.16609 0.49671012L148.5008 0.49671012L148.5008 49.8314L99.16609 49.8314Z" fill-rule="evenodd"/><path fill="#000000" clip-path="url(#id_0)" d="M112.09472 20.666197Q110.9462 21.892323 110.4961 23.320213Q110.046005 24.748106 110.046005 26.393284Q110.046005 28.333355 110.55819 29.88541Q111.085884 31.421947 112.09472 32.492863L111.8464 32.772232Q110.35642 31.49955 109.62695 29.900932Q108.897484 28.286793 108.897484 26.393284Q108.897484 24.60842 109.62695 23.071884Q110.35642 21.519829 111.8464 20.324745L112.09472 20.666197ZM115.50999 20.805882Q116.192894 20.805882 116.70507 21.00765Q117.21725 21.193897 117.54318 21.535349Q117.884636 21.86128 118.05536 22.326897Q118.22609 22.776993 118.22609 23.289173Q118.22609 23.956556 117.91567 24.57738Q117.76047 24.91883 117.41902 25.353407Q117.09309 25.772463 116.53435 26.362244L114.12866 28.907616Q114.99781 28.907616 116.068726 28.876575Q117.15517 28.845533 118.70722 28.783451Q118.6917 28.923136 118.676186 29.078342Q118.676186 29.233547 118.676186 29.373232Q118.676186 29.528439 118.676186 29.683643Q118.6917 29.823328 118.70722 29.978535Q117.962234 29.963015 117.20173 29.947493Q116.44122 29.931973 115.696236 29.931973Q115.44791 29.931973 115.090935 29.931973Q114.73396 29.947493 114.33043 29.947493Q113.94241 29.963015 113.52335 29.963015Q113.1043 29.978535 112.73181 29.978535L112.73181 29.621561L114.98229 27.231396Q115.92905 26.207037 116.47227 25.368927Q117.031006 24.530817 117.031006 23.692707Q117.031006 22.885637 116.549866 22.357939Q116.08425 21.83024 115.26166 21.83024Q114.81156 21.83024 114.532196 21.907843Q114.25282 21.969925 114.03554 22.14065Q113.88033 22.295856 113.77168 22.482103Q113.66304 22.66835 113.569916 22.96324L113.41471 23.5375L113.026695 23.5375Q113.07326 23.320213 113.08878 23.056364Q113.11982 22.792515 113.15086 22.559706Q113.197426 22.311377 113.212944 22.09409Q113.22847 21.8768 113.25951 21.737116Q113.694084 21.240458 114.26834 21.02317Q114.85812 20.805882 115.50999 20.805882ZM120.53086 28.705849Q120.872314 28.628246 121.15168 28.535122Q121.44657 28.442 121.83459 28.302313L122.020836 28.48856Q121.6949 29.388754 121.182724 30.180302Q120.67055 30.97185 120.080765 31.732357L119.537544 31.980686L119.351295 31.841002Q119.78587 31.127056 120.11181 30.351028Q120.453255 29.59052 120.53086 28.705849ZM125.96692 20.805882Q127.30169 20.805882 127.95355 21.86128Q128.60542 22.91668 128.60542 24.934351Q128.60542 27.603888 127.89147 28.907616Q127.17753 30.195822 125.68755 30.195822Q124.896 30.195822 124.337265 29.88541Q123.794044 29.559479 123.45259 28.969698Q123.126656 28.379917 122.97145 27.557327Q122.83177 26.719217 122.83177 25.679338Q122.83177 24.375612 123.03354 23.444378Q123.250824 22.513144 123.65436 21.938883Q124.07341 21.349102 124.647675 21.085253Q125.22193 20.805882 125.96692 20.805882ZM123.93373 25.322367Q123.93373 27.63493 124.3683 28.690329Q124.8184 29.730206 125.76515 29.730206Q126.354935 29.730206 126.69639 29.357712Q127.05336 28.985218 127.22409 28.410957Q127.39481 27.836697 127.441376 27.138271Q127.48794 26.439846 127.48794 25.772463Q127.48794 24.57738 127.379295 23.73927Q127.28617 22.885637 127.06888 22.342419Q126.86711 21.783678 126.51014 21.535349Q126.168686 21.2715 125.67203 21.2715Q125.05121 21.2715 124.709755 21.628471Q124.3683 21.985445 124.19758 22.559706Q124.026855 23.133966 123.98029 23.863434Q123.93373 24.57738 123.93373 25.322367ZM129.74615 20.324745Q131.2206 21.519829 131.95007 23.071884Q132.67953 24.60842 132.67953 26.393284Q132.67953 28.286793 131.95007 29.900932Q131.2206 31.49955 129.74615 32.772232L129.4823 32.492863Q131.54654 30.211344 131.54654 26.393284Q131.54654 24.748106 131.09644 23.320213Q130.64635 21.892323 129.4823 20.666197L129.74615 20.324745Z" fill-rule="nonzero"/><path fill="#d9d9d9" clip-path="url(#id_0)" d="M0.49671012 49.8314L49.8314 49.8314L49.8314 99.16609L0.49671012 99.16609Z" fill-rule="evenodd"/><path stroke="#000000" stroke-width="0.993315952476772" stroke-linejoin="round" stroke-linecap="butt" clip-path="url(#id_0)" d="M0.49671012 49.8314L49.8314 49.8314L49.8314 99.16609L0.49671012 99.16609Z" fill-rule="evenodd"/><path fill="#000000" clip-path="url(#id_1)" d="M13.425338 70.00089Q12.276816 71.22701 11.82672 72.65491Q11.376624 74.082794 11.376624 75.727974Q11.376624 77.668045 11.888803 79.2201Q12.416502 80.75664 13.425338 81.82755L13.177009 82.106926Q11.687036 80.83424 10.957569 79.23563Q10.228103 77.62148 10.228103 75.727974Q10.228103 73.943115 10.957569 72.40658Q11.687036 70.85452 13.177009 69.65944L13.425338 70.00089ZM17.368303 70.14057Q18.703072 70.14057 19.354935 71.19598Q20.0068 72.25137 20.0068 74.26904Q20.0068 76.93858 19.292852 78.24231Q18.578907 79.53052 17.088934 79.53052Q16.297384 79.53052 15.738645 79.2201Q15.195425 78.89417 14.853972 78.30439Q14.528041 77.71461 14.372835 76.89202Q14.23315 76.05391 14.23315 75.01403Q14.23315 73.710304 14.434917 72.77907Q14.652205 71.84784 15.055739 71.273575Q15.474795 70.68379 16.049055 70.419945Q16.623316 70.14057 17.368303 70.14057ZM15.33511 74.65706Q15.33511 76.96962 15.769686 78.02502Q16.219782 79.064896 17.166536 79.064896Q17.756317 79.064896 18.09777 78.692406Q18.454742 78.31991 18.62547 77.74565Q18.796196 77.17139 18.842756 76.47296Q18.889318 75.774536 18.889318 75.107155Q18.889318 73.91207 18.780674 73.07396Q18.687551 72.22033 18.470263 71.67711Q18.268496 71.11837 17.911524 70.87004Q17.57007 70.60619 17.073412 70.60619Q16.45259 70.60619 16.111137 70.963165Q15.769686 71.32014 15.598959 71.8944Q15.428233 72.46866 15.381672 73.19813Q15.33511 73.91207 15.33511 74.65706ZM21.861475 78.04054Q22.202929 77.96294 22.482298 77.86981Q22.77719 77.77669 23.165203 77.63701L23.35145 77.82325Q23.025518 78.72344 22.51334 79.51499Q22.001162 80.30654 21.411379 81.06705L20.86816 81.31538L20.681913 81.1757Q21.11649 80.46175 21.442421 79.68572Q21.783873 78.92521 21.861475 78.04054ZM27.763155 70.14057L27.763155 78.02502Q27.763155 78.42856 27.840757 78.56824Q27.91836 78.692406 28.058044 78.770004Q28.228771 78.84761 28.601265 78.86313L29.31521 78.90969L29.31521 79.313225Q29.191046 79.313225 28.911676 79.29771Q28.632305 79.29771 28.306374 79.28219Q27.995962 79.28219 27.68555 79.26666Q27.390661 79.26666 27.219934 79.26666Q27.018167 79.26666 26.692236 79.26666Q26.381824 79.28219 26.04037 79.28219Q25.71444 79.29771 25.43507 79.29771Q25.17122 79.313225 25.047056 79.313225L25.047056 78.90969L25.776522 78.86313Q25.962769 78.86313 26.071413 78.84761Q26.180058 78.83209 26.2887 78.78553Q26.50599 78.707924 26.568071 78.55272Q26.645674 78.397514 26.645674 77.99398L26.645674 71.521904Q26.645674 71.25806 26.614634 71.19598Q26.583591 71.13389 26.53703 71.13389Q26.52151 71.13389 26.474947 71.16493Q26.443907 71.18045 26.381824 71.211494L24.798727 71.92544L24.659042 71.92544L24.565918 71.35118Q25.372988 71.07181 26.149015 70.74588Q26.940565 70.419945 27.576908 70.07849L27.763155 70.14057ZM31.076763 69.65944Q32.551216 70.85452 33.280685 72.40658Q34.01015 73.943115 34.01015 75.727974Q34.01015 77.62148 33.280685 79.23563Q32.551216 80.83424 31.076763 82.106926L30.812914 81.82755Q32.877148 79.546036 32.877148 75.727974Q32.877148 74.082794 32.42705 72.65491Q31.976957 71.22701 30.812914 70.00089L31.076763 69.65944Z" fill-rule="nonzero"/><path fill="#d9d9d9" clip-path="url(#id_0)" d="M49.8314 49.8314L99.16609 49.8314L99.16609 99.16609L49.8314 99.16609Z" fill-rule="evenodd"/><path stroke="#000000" stroke-width="0.993315952476772" stroke-linejoin="round" stroke-linecap="butt" clip-path="url(#id_0)" d="M49.8314 49.8314L99.16609 49.8314L99.16609 99.16609L49.8314 99.16609Z" fill-rule="evenodd"/><path fill="#000000" clip-path="url(#id_0)" d="M62.76003 70.00089Q61.611507 71.22701 61.16141 72.65491Q60.711315 74.082794 60.711315 75.727974Q60.711315 77.668045 61.223495 79.2201Q61.751194 80.75664 62.76003 81.82755L62.5117 82.106926Q61.02173 80.83424 60.29226 79.23563Q59.562794 77.62148 59.562794 75.727974Q59.562794 73.943115 60.29226 72.40658Q61.02173 70.85452 62.5117 69.65944L62.76003 70.00089ZM67.16861 70.14057L67.16861 78.02502Q67.16861 78.42856 67.246216 78.56824Q67.32382 78.692406 67.4635 78.770004Q67.63423 78.84761 68.00672 78.86313L68.720665 78.90969L68.720665 79.313225Q68.596504 79.313225 68.31713 79.29771Q68.037766 79.29771 67.71183 79.28219Q67.40142 79.28219 67.09101 79.26666Q66.79612 79.26666 66.6254 79.26666Q66.42362 79.26666 66.097694 79.26666Q65.787285 79.28219 65.44583 79.28219Q65.119896 79.29771 64.84053 79.29771Q64.576675 79.313225 64.452515 79.313225L64.452515 78.90969L65.181984 78.86313Q65.368225 78.86313 65.47687 78.84761Q65.58552 78.83209 65.69416 78.78553Q65.911446 78.707924 65.973526 78.55272Q66.05113 78.397514 66.05113 77.99398L66.05113 71.521904Q66.05113 71.25806 66.02009 71.19598Q65.98905 71.13389 65.94249 71.13389Q65.92697 71.13389 65.88041 71.16493Q65.849365 71.18045 65.787285 71.211494L64.204185 71.92544L64.0645 71.92544L63.97138 71.35118Q64.77844 71.07181 65.554474 70.74588Q66.34602 70.419945 66.98237 70.07849L67.16861 70.14057ZM71.19617 78.04054Q71.53762 77.96294 71.81699 77.86981Q72.11188 77.77669 72.49989 77.63701L72.68614 77.82325Q72.36021 78.72344 71.84803 79.51499Q71.33585 80.30654 70.74607 81.06705L70.20285 81.31538L70.0166 81.1757Q70.45118 80.46175 70.777115 79.68572Q71.11857 78.92521 71.19617 78.04054ZM77.09785 70.14057L77.09785 78.02502Q77.09785 78.42856 77.175446 78.56824Q77.25305 78.692406 77.39274 78.770004Q77.56346 78.84761 77.93596 78.86313L78.6499 78.90969L78.6499 79.313225Q78.52574 79.313225 78.24637 79.29771Q77.966995 79.29771 77.64107 79.28219Q77.33066 79.28219 77.02024 79.26666Q76.72535 79.26666 76.55463 79.26666Q76.35286 79.26666 76.026924 79.26666Q75.716515 79.28219 75.37506 79.28219Q75.04913 79.29771 74.76976 79.29771Q74.50591 79.313225 74.381744 79.313225L74.381744 78.90969L75.11121 78.86313Q75.29746 78.86313 75.406105 78.84761Q75.51475 78.83209 75.62339 78.78553Q75.84068 78.707924 75.90276 78.55272Q75.98037 78.397514 75.98037 77.99398L75.98037 71.521904Q75.98037 71.25806 75.949326 71.19598Q75.91828 71.13389 75.87172 71.13389Q75.8562 71.13389 75.80964 71.16493Q75.778595 71.18045 75.716515 71.211494L74.13342 71.92544L73.99374 71.92544L73.90061 71.35118Q74.70768 71.07181 75.48371 70.74588Q76.27525 70.419945 76.9116 70.07849L77.09785 70.14057ZM80.41145 69.65944Q81.88591 70.85452 82.61538 72.40658Q83.34484 73.943115 83.34484 75.727974Q83.34484 77.62148 82.61538 79.23563Q81.88591 80.83424 80.41145 82.106926L80.147606 81.82755Q82.21184 79.546036 82.21184 75.727974Q82.21184 74.082794 81.76174 72.65491Q81.311646 71.22701 80.147606 70.00089L80.41145 69.65944Z" fill-rule="nonzero"/><path fill="#d9d9d9" clip-path="url(#id_0)" d="M99.16609 49.8314L148.5008 49.8314L148.5008 99.16609L99.16609 99.16609Z" fill-rule="evenodd"/><path stroke="#000000" stroke-width="0.993315952476772" stroke-linejoin="round" stroke-linecap="butt" clip-path="url(#id_0)" d="M99.16609 49.8314L148.5008 49.8314L148.5008 99.16609L99.16609 99.16609Z" fill-rule="evenodd"/><path fill="#000000" clip-path="url(#id_0)" d="M112.09472 70.00089Q110.9462 71.22701 110.4961 72.65491Q110.046005 74.082794 110.046005 75.727974Q110.046005 77.668045 110.55819 79.2201Q111.085884 80.75664 112.09472 81.82755L111.8464 82.106926Q110.35642 80.83424 109.62695 79.23563Q108.897484 77.62148 108.897484 75.727974Q108.897484 73.943115 109.62695 72.40658Q110.35642 70.85452 111.8464 69.65944L112.09472 70.00089ZM115.50999 70.14057Q116.192894 70.14057 116.70507 70.34234Q117.21725 70.52859 117.54318 70.87004Q117.884636 71.19598 118.05536 71.66159Q118.22609 72.11169 118.22609 72.62386Q118.22609 73.29125 117.91567 73.91207Q117.76047 74.253525 117.41902 74.6881Q117.09309 75.107155 116.53435 75.69694L114.12866 78.24231Q114.99781 78.24231 116.068726 78.211266Q117.15517 78.18023 118.70722 78.11814Q118.6917 78.25783 118.676186 78.41303Q118.676186 78.56824 118.676186 78.707924Q118.676186 78.86313 118.676186 79.01833Q118.6917 79.15802 118.70722 79.313225Q117.962234 79.29771 117.20173 79.28219Q116.44122 79.26666 115.696236 79.26666Q115.44791 79.26666 115.090935 79.26666Q114.73396 79.28219 114.33043 79.28219Q113.94241 79.29771 113.52335 79.29771Q113.1043 79.313225 112.73181 79.313225L112.73181 78.95625L114.98229 76.566086Q115.92905 75.54173 116.47227 74.70362Q117.031006 73.86551 117.031006 73.0274Q117.031006 72.22033 116.549866 71.692635Q116.08425 71.16493 115.26166 71.16493Q114.81156 71.16493 114.532196 71.24253Q114.25282 71.30462 114.03554 71.47534Q113.88033 71.63055 113.77168 71.816795Q113.66304 72.003044 113.569916 72.297935L113.41471 72.87219L113.026695 72.87219Q113.07326 72.65491 113.08878 72.39106Q113.11982 72.127205 113.15086 71.8944Q113.197426 71.64607 113.212944 71.42878Q113.22847 71.211494 113.25951 71.07181Q113.694084 70.57515 114.26834 70.357864Q114.85812 70.14057 115.50999 70.14057ZM120.53086 78.04054Q120.872314 77.96294 121.15168 77.86981Q121.44657 77.77669 121.83459 77.63701L122.020836 77.82325Q121.6949 78.72344 121.182724 79.51499Q120.67055 80.30654 120.080765 81.06705L119.537544 81.31538L119.351295 81.1757Q119.78587 80.46175 120.11181 79.68572Q120.453255 78.92521 120.53086 78.04054ZM125.439224 70.14057Q126.12213 70.14057 126.63431 70.34234Q127.146484 70.52859 127.47242 70.87004Q127.813866 71.19598 127.9846 71.66159Q128.15532 72.11169 128.15532 72.62386Q128.15532 73.29125 127.84491 73.91207Q127.689705 74.253525 127.34825 74.6881Q127.02232 75.107155 126.46358 75.69694L124.05789 78.24231Q124.92705 78.24231 125.99796 78.211266Q127.084404 78.18023 128.63646 78.11814Q128.62094 78.25783 128.60542 78.41303Q128.60542 78.56824 128.60542 78.707924Q128.60542 78.86313 128.60542 79.01833Q128.62094 79.15802 128.63646 79.313225Q127.89147 79.29771 127.13097 79.28219Q126.37045 79.26666 125.62547 79.26666Q125.377144 79.26666 125.020164 79.26666Q124.66319 79.28219 124.25966 79.28219Q123.87164 79.29771 123.45259 79.29771Q123.03354 79.313225 122.66104 79.313225L122.66104 78.95625L124.91152 76.566086Q125.85828 75.54173 126.4015 74.70362Q126.960236 73.86551 126.960236 73.0274Q126.960236 72.22033 126.4791 71.692635Q126.01348 71.16493 125.190895 71.16493Q124.7408 71.16493 124.461426 71.24253Q124.18206 71.30462 123.96477 71.47534Q123.80956 71.63055 123.70092 71.816795Q123.59228 72.003044 123.49915 72.297935L123.34395 72.87219L122.95593 72.87219Q123.002495 72.65491 123.01801 72.39106Q123.04906 72.127205 123.0801 71.8944Q123.126656 71.64607 123.14218 71.42878Q123.1577 71.211494 123.18874 71.07181Q123.623314 70.57515 124.19758 70.357864Q124.78736 70.14057 125.439224 70.14057ZM129.74615 69.65944Q131.2206 70.85452 131.95007 72.40658Q132.67953 73.943115 132.67953 75.727974Q132.67953 77.62148 131.95007 79.23563Q131.2206 80.83424 129.74615 82.106926L129.4823 81.82755Q131.54654 79.546036 131.54654 75.727974Q131.54654 74.082794 131.09644 72.65491Q130.64635 71.22701 129.4823 70.00089L129.74615 69.65944Z" fill-rule="nonzero"/><path fill="#d9d9d9" clip-path="url(#id_0)" d="M0.49671012 99.16609L49.8314 99.16609L49.8314 148.5008L0.49671012 148.5008Z" fill-rule="evenodd"/><path stroke="#000000" stroke-width="0.993315952476772" stroke-linejoin="round" stroke-linecap="butt" clip-path="url(#id_0)" d="M0.49671012 99.16609L49.8314 99.16609L49.8314 148.5008L0.49671012 148.5008Z" fill-rule="evenodd"/><path fill="#000000" clip-path="url(#id_1)" d="M13.425338 119.33558Q12.276816 120.56171 11.82672 121.9896Q11.376624 123.41749 11.376624 125.06267Q11.376624 127.00274 11.888803 128.5548Q12.416502 130.09132 13.425338 131.16225L13.177009 131.44162Q11.687036 130.16893 10.957569 128.57031Q10.228103 126.95618 10.228103 125.06267Q10.228103 123.2778 10.957569 121.74127Q11.687036 120.18922 13.177009 118.99413L13.425338 119.33558ZM17.368303 119.475266Q18.703072 119.475266 19.354935 120.53066Q20.0068 121.58607 20.0068 123.60374Q20.0068 126.27327 19.292852 127.577Q18.578907 128.8652 17.088934 128.8652Q16.297384 128.8652 15.738645 128.5548Q15.195425 128.22887 14.853972 127.639084Q14.528041 127.0493 14.372835 126.226715Q14.23315 125.3886 14.23315 124.348724Q14.23315 123.045 14.434917 122.11376Q14.652205 121.182526 15.055739 120.60827Q15.474795 120.018486 16.049055 119.75464Q16.623316 119.475266 17.368303 119.475266ZM15.33511 123.99175Q15.33511 126.30431 15.769686 127.35971Q16.219782 128.3996 17.166536 128.3996Q17.756317 128.3996 18.09777 128.0271Q18.454742 127.6546 18.62547 127.080345Q18.796196 126.50608 18.842756 125.807655Q18.889318 125.10923 18.889318 124.44185Q18.889318 123.246765 18.780674 122.40865Q18.687551 121.55502 18.470263 121.0118Q18.268496 120.453064 17.911524 120.204735Q17.57007 119.94089 17.073412 119.94089Q16.45259 119.94089 16.111137 120.29786Q15.769686 120.65483 15.598959 121.22909Q15.428233 121.80335 15.381672 122.532814Q15.33511 123.246765 15.33511 123.99175ZM21.861475 127.37524Q22.202929 127.29763 22.482298 127.204506Q22.77719 127.11138 23.165203 126.971695L23.35145 127.15794Q23.025518 128.05814 22.51334 128.84969Q22.001162 129.64124 21.411379 130.40175L20.86816 130.65007L20.681913 130.51039Q21.11649 129.79645 21.442421 129.02042Q21.783873 128.2599 21.861475 127.37524ZM26.769838 119.475266Q27.452744 119.475266 27.964922 119.67703Q28.4771 119.86328 28.803032 120.204735Q29.144484 120.53066 29.31521 120.996284Q29.485937 121.44638 29.485937 121.95856Q29.485937 122.62594 29.175526 123.246765Q29.020319 123.58822 28.678867 124.02279Q28.352936 124.44185 27.794195 125.03163L25.388508 127.577Q26.25766 127.577 27.328579 127.54596Q28.415018 127.514915 29.967073 127.452835Q29.951553 127.59252 29.936033 127.74773Q29.936033 127.90293 29.936033 128.04262Q29.936033 128.19783 29.936033 128.35303Q29.951553 128.4927 29.967073 128.64792Q29.222088 128.6324 28.46158 128.61688Q27.701073 128.60136 26.956085 128.60136Q26.707756 128.60136 26.350782 128.60136Q25.99381 128.61688 25.590275 128.61688Q25.202261 128.6324 24.783207 128.6324Q24.364151 128.64792 23.991657 128.64792L23.991657 128.29094L26.24214 125.90078Q27.188894 124.87642 27.732113 124.038315Q28.290854 123.2002 28.290854 122.36209Q28.290854 121.55502 27.809715 121.02732Q27.344099 120.499626 26.52151 120.499626Q26.071413 120.499626 25.792044 120.577225Q25.512672 120.63931 25.295385 120.810036Q25.140179 120.96524 25.031536 121.15149Q24.922892 121.33774 24.829767 121.63262L24.674562 122.20689L24.286549 122.20689Q24.33311 121.9896 24.34863 121.725746Q24.379671 121.4619 24.410713 121.22909Q24.457275 120.98076 24.472795 120.76347Q24.488316 120.54619 24.519358 120.4065Q24.953932 119.90984 25.528193 119.69256Q26.117975 119.475266 26.769838 119.475266ZM31.076763 118.99413Q32.551216 120.18922 33.280685 121.74127Q34.01015 123.2778 34.01015 125.06267Q34.01015 126.95618 33.280685 128.57031Q32.551216 130.16893 31.076763 131.44162L30.812914 131.16225Q32.877148 128.88072 32.877148 125.06267Q32.877148 123.41749 32.42705 121.9896Q31.976957 120.56171 30.812914 119.33558L31.076763 118.99413Z" fill-rule="nonzero"/><path fill="#d9d9d9" clip-path="url(#id_0)" d="M49.8314 99.16609L99.16609 99.16609L99.16609 148.5008L49.8314 148.5008Z" fill-rule="evenodd"/><path stroke="#000000" stroke-width="0.993315952476772" stroke-linejoin="round" stroke-linecap="butt" clip-path="url(#id_0)" d="M49.8314 99.16609L99.16609 99.16609L99.16609 148.5008L49.8314 148.5008Z" fill-rule="evenodd"/><path fill="#000000" clip-path="url(#id_0)" d="M62.76003 119.33558Q61.611507 120.56171 61.16141 121.9896Q60.711315 123.41749 60.711315 125.06267Q60.711315 127.00274 61.223495 128.5548Q61.751194 130.09132 62.76003 131.16225L62.5117 131.44162Q61.02173 130.16893 60.29226 128.57031Q59.562794 126.95618 59.562794 125.06267Q59.562794 123.2778 60.29226 121.74127Q61.02173 120.18922 62.5117 118.99413L62.76003 119.33558ZM67.16861 119.475266L67.16861 127.35971Q67.16861 127.763245 67.246216 127.90293Q67.32382 128.0271 67.4635 128.1047Q67.63423 128.1823 68.00672 128.19783L68.720665 128.24438L68.720665 128.64792Q68.596504 128.64792 68.31713 128.6324Q68.037766 128.6324 67.71183 128.61688Q67.40142 128.61688 67.09101 128.60136Q66.79612 128.60136 66.6254 128.60136Q66.42362 128.60136 66.097694 128.60136Q65.787285 128.61688 65.44583 128.61688Q65.119896 128.6324 64.84053 128.6324Q64.576675 128.64792 64.452515 128.64792L64.452515 128.24438L65.181984 128.19783Q65.368225 128.19783 65.47687 128.1823Q65.58552 128.16678 65.69416 128.12022Q65.911446 128.04262 65.973526 127.88741Q66.05113 127.73221 66.05113 127.328674L66.05113 120.8566Q66.05113 120.59275 66.02009 120.53066Q65.98905 120.46858 65.94249 120.46858Q65.92697 120.46858 65.88041 120.499626Q65.849365 120.515144 65.787285 120.54619L64.204185 121.26013L64.0645 121.26013L63.97138 120.68587Q64.77844 120.4065 65.554474 120.08057Q66.34602 119.75464 66.98237 119.413185L67.16861 119.475266ZM71.19617 127.37524Q71.53762 127.29763 71.81699 127.204506Q72.11188 127.11138 72.49989 126.971695L72.68614 127.15794Q72.36021 128.05814 71.84803 128.84969Q71.33585 129.64124 70.74607 130.40175L70.20285 130.65007L70.0166 130.51039Q70.45118 129.79645 70.777115 129.02042Q71.11857 128.2599 71.19617 127.37524ZM76.10453 119.475266Q76.78744 119.475266 77.299614 119.67703Q77.81179 119.86328 78.137726 120.204735Q78.47918 120.53066 78.6499 120.996284Q78.820625 121.44638 78.820625 121.95856Q78.820625 122.62594 78.510216 123.246765Q78.35501 123.58822 78.01356 124.02279Q77.68763 124.44185 77.12889 125.03163L74.7232 127.577Q75.592354 127.577 76.66327 127.54596Q77.74971 127.514915 79.301765 127.452835Q79.28625 127.59252 79.27072 127.74773Q79.27072 127.90293 79.27072 128.04262Q79.27072 128.19783 79.27072 128.35303Q79.28625 128.4927 79.301765 128.64792Q78.55678 128.6324 77.79627 128.61688Q77.03577 128.60136 76.29078 128.60136Q76.04245 128.60136 75.68548 128.60136Q75.3285 128.61688 74.924965 128.61688Q74.53696 128.6324 74.1179 128.6324Q73.698845 128.64792 73.32635 128.64792L73.32635 128.29094L75.57683 125.90078Q76.52358 124.87642 77.0668 124.038315Q77.62555 123.2002 77.62555 122.36209Q77.62555 121.55502 77.14441 121.02732Q76.678795 120.499626 75.8562 120.499626Q75.406105 120.499626 75.12673 120.577225Q74.84737 120.63931 74.63007 120.810036Q74.47487 120.96524 74.36623 121.15149Q74.25758 121.33774 74.16446 121.63262L74.009254 122.20689L73.62124 122.20689Q73.6678 121.9896 73.68333 121.725746Q73.71436 121.4619 73.74541 121.22909Q73.79197 120.98076 73.80749 120.76347Q73.823006 120.54619 73.85405 120.4065Q74.28863 119.90984 74.862885 119.69256Q75.45267 119.475266 76.10453 119.475266ZM80.41145 118.99413Q81.88591 120.18922 82.61538 121.74127Q83.34484 123.2778 83.34484 125.06267Q83.34484 126.95618 82.61538 128.57031Q81.88591 130.16893 80.41145 131.44162L80.147606 131.16225Q82.21184 128.88072 82.21184 125.06267Q82.21184 123.41749 81.76174 121.9896Q81.311646 120.56171 80.147606 119.33558L80.41145 118.99413Z" fill-rule="nonzero"/><path fill="#d9d9d9" clip-path="url(#id_0)" d="M99.16609 99.16609L148.5008 99.16609L148.5008 148.5008L99.16609 148.5008Z" fill-rule="evenodd"/><path stroke="#000000" stroke-width="0.993315952476772" stroke-linejoin="round" stroke-linecap="butt" clip-path="url(#id_0)" d="M99.16609 99.16609L148.5008 99.16609L148.5008 148.5008L99.16609 148.5008Z" fill-rule="evenodd"/><path fill="#000000" clip-path="url(#id_0)" d="M112.09472 119.33558Q110.9462 120.56171 110.4961 121.9896Q110.046005 123.41749 110.046005 125.06267Q110.046005 127.00274 110.55819 128.5548Q111.085884 130.09132 112.09472 131.16225L111.8464 131.44162Q110.35642 130.16893 109.62695 128.57031Q108.897484 126.95618 108.897484 125.06267Q108.897484 123.2778 109.62695 121.74127Q110.35642 120.18922 111.8464 118.99413L112.09472 119.33558ZM115.50999 119.475266Q116.192894 119.475266 116.70507 119.67703Q117.21725 119.86328 117.54318 120.204735Q117.884636 120.53066 118.05536 120.996284Q118.22609 121.44638 118.22609 121.95856Q118.22609 122.62594 117.91567 123.246765Q117.76047 123.58822 117.41902 124.02279Q117.09309 124.44185 116.53435 125.03163L114.12866 127.577Q114.99781 127.577 116.068726 127.54596Q117.15517 127.514915 118.70722 127.452835Q118.6917 127.59252 118.676186 127.74773Q118.676186 127.90293 118.676186 128.04262Q118.676186 128.19783 118.676186 128.35303Q118.6917 128.4927 118.70722 128.64792Q117.962234 128.6324 117.20173 128.61688Q116.44122 128.60136 115.696236 128.60136Q115.44791 128.60136 115.090935 128.60136Q114.73396 128.61688 114.33043 128.61688Q113.94241 128.6324 113.52335 128.6324Q113.1043 128.64792 112.73181 128.64792L112.73181 128.29094L114.98229 125.90078Q115.92905 124.87642 116.47227 124.038315Q117.031006 123.2002 117.031006 122.36209Q117.031006 121.55502 116.549866 121.02732Q116.08425 120.499626 115.26166 120.499626Q114.81156 120.499626 114.532196 120.577225Q114.25282 120.63931 114.03554 120.810036Q113.88033 120.96524 113.77168 121.15149Q113.66304 121.33774 113.569916 121.63262L113.41471 122.20689L113.026695 122.20689Q113.07326 121.9896 113.08878 121.725746Q113.11982 121.4619 113.15086 121.22909Q113.197426 120.98076 113.212944 120.76347Q113.22847 120.54619 113.25951 120.4065Q113.694084 119.90984 114.26834 119.69256Q114.85812 119.475266 115.50999 119.475266ZM120.53086 127.37524Q120.872314 127.29763 121.15168 127.204506Q121.44657 127.11138 121.83459 126.971695L122.020836 127.15794Q121.6949 128.05814 121.182724 128.84969Q120.67055 129.64124 120.080765 130.40175L119.537544 130.65007L119.351295 130.51039Q119.78587 129.79645 120.11181 129.02042Q120.453255 128.2599 120.53086 127.37524ZM125.439224 119.475266Q126.12213 119.475266 126.63431 119.67703Q127.146484 119.86328 127.47242 120.204735Q127.813866 120.53066 127.9846 120.996284Q128.15532 121.44638 128.15532 121.95856Q128.15532 122.62594 127.84491 123.246765Q127.689705 123.58822 127.34825 124.02279Q127.02232 124.44185 126.46358 125.03163L124.05789 127.577Q124.92705 127.577 125.99796 127.54596Q127.084404 127.514915 128.63646 127.452835Q128.62094 127.59252 128.60542 127.74773Q128.60542 127.90293 128.60542 128.04262Q128.60542 128.19783 128.60542 128.35303Q128.62094 128.4927 128.63646 128.64792Q127.89147 128.6324 127.13097 128.61688Q126.37045 128.60136 125.62547 128.60136Q125.377144 128.60136 125.020164 128.60136Q124.66319 128.61688 124.25966 128.61688Q123.87164 128.6324 123.45259 128.6324Q123.03354 128.64792 122.66104 128.64792L122.66104 128.29094L124.91152 125.90078Q125.85828 124.87642 126.4015 124.038315Q126.960236 123.2002 126.960236 122.36209Q126.960236 121.55502 126.4791 121.02732Q126.01348 120.499626 125.190895 120.499626Q124.7408 120.499626 124.461426 120.577225Q124.18206 120.63931 123.96477 120.810036Q123.80956 120.96524 123.70092 121.15149Q123.59228 121.33774 123.49915 121.63262L123.34395 122.20689L122.95593 122.20689Q123.002495 121.9896 123.01801 121.725746Q123.04906 121.4619 123.0801 121.22909Q123.126656 120.98076 123.14218 120.76347Q123.1577 120.54619 123.18874 120.4065Q123.623314 119.90984 124.19758 119.69256Q124.78736 119.475266 125.439224 119.475266ZM129.74615 118.99413Q131.2206 120.18922 131.95007 121.74127Q132.67953 123.2778 132.67953 125.06267Q132.67953 126.95618 131.95007 128.57031Q131.2206 130.16893 129.74615 131.44162L129.4823 131.16225Q131.54654 128.88072 131.54654 125.06267Q131.54654 123.41749 131.09644 121.9896Q130.64635 120.56171 129.4823 119.33558L129.74615 118.99413Z" fill-rule="nonzero"/></svg>